<svg width="36" height="37" viewBox="0 0 36 37" fill="none" xmlns="http://www.w3.org/2000/svg">
<rect y="0.330017" width="36" height="36" rx="18" fill="#005EE8"/>
<path d="M17.95 10.1717L15.9416 14.8467H13.9333C13.6 14.8467 13.275 14.8717 12.9583 14.9384L13.7916 12.9384L13.825 12.8634L13.875 12.73C13.9 12.6717 13.9166 12.6217 13.9416 12.58C14.9083 10.3384 15.9916 9.63835 17.95 10.1717Z" fill="white"/>
<path d="M23.6083 15.0717L23.5916 15.0634C23.0916 14.9217 22.5833 14.8467 22.0666 14.8467H16.85L18.725 10.4884L18.75 10.43C18.8666 10.4717 18.9916 10.53 19.1166 10.5717L20.9583 11.3467C21.9833 11.7717 22.7 12.2134 23.1416 12.7467C23.2166 12.8467 23.2833 12.9384 23.35 13.0467C23.425 13.1634 23.4833 13.28 23.5166 13.405C23.55 13.48 23.575 13.5467 23.5916 13.6217C23.7166 14.0467 23.725 14.53 23.6083 15.0717Z" fill="white"/>
<path d="M23.2416 16.2633C22.8666 16.155 22.475 16.0967 22.0666 16.0967H13.9333C13.3666 16.0967 12.8333 16.205 12.3333 16.4217C10.8833 17.0467 9.86664 18.4883 9.86664 20.1633V21.7883C9.86664 21.9883 9.8833 22.18 9.9083 22.38C10.0916 25.03 11.5083 26.4467 14.1583 26.6217C14.35 26.6467 14.5416 26.6633 14.75 26.6633H21.25C24.3333 26.6633 25.9583 25.1967 26.1166 22.28C26.125 22.1217 26.1333 21.955 26.1333 21.7883V20.1633C26.1333 18.3217 24.9083 16.7717 23.2416 16.2633ZM20.0833 21.8217H18.625V23.33C18.625 23.6717 18.3416 23.955 18 23.955C17.6583 23.955 17.375 23.6717 17.375 23.33V21.8217H15.9166C15.575 21.8217 15.2916 21.5467 15.2916 21.1967C15.2916 20.855 15.575 20.5717 15.9166 20.5717H17.375V19.1633C17.375 18.8217 17.6583 18.5383 18 18.5383C18.3416 18.5383 18.625 18.8217 18.625 19.1633V20.5717H20.0833C20.425 20.5717 20.7083 20.855 20.7083 21.1967C20.7083 21.5467 20.425 21.8217 20.0833 21.8217Z" fill="white"/>
</svg>
