<svg width="25" height="25" viewBox="0 0 25 25" fill="none" xmlns="http://www.w3.org/2000/svg">
<path d="M8.37048 2.82996H16.7513C18.4717 2.83004 19.7842 3.3413 20.6654 4.22351C21.5466 5.10576 22.0559 6.41832 22.0511 8.13855V16.5204C22.0511 18.2407 21.5401 19.5539 20.6576 20.4364C19.775 21.319 18.4612 21.83 16.7406 21.83H8.37048C6.65014 21.8299 5.33696 21.319 4.45447 20.4354C3.57189 19.5517 3.06091 18.2355 3.06091 16.5096V8.13953C3.061 6.41917 3.57192 5.10606 4.45447 4.22351C5.33702 3.34096 6.65013 2.83004 8.37048 2.82996ZM9.30115 11.5995C8.38511 11.5995 7.64116 12.3436 7.64099 13.2596V16.5204C7.64122 17.4363 8.38515 18.1796 9.30115 18.1796C10.2242 18.1794 10.9708 17.439 10.9711 16.5204V13.2596C10.9709 12.3409 10.2243 11.5996 9.30115 11.5995ZM15.8207 6.48035C14.8976 6.48047 14.151 7.22087 14.1508 8.13953V16.5204C14.151 17.439 14.8976 18.1794 15.8207 18.1796C16.7367 18.1796 17.4806 17.4363 17.4808 16.5204V8.13953C17.4806 7.22358 16.7367 6.48035 15.8207 6.48035Z" fill="" stroke=""/>
</svg>
