<svg width="36" height="37" viewBox="0 0 36 37" fill="none" xmlns="http://www.w3.org/2000/svg">
<rect y="0.330017" width="36" height="36" rx="18" fill="#005EE8"/>
<path d="M23.5583 9.99667H21.975C20.1583 9.99667 19.2 10.955 19.2 12.7717V14.355C19.2 16.1717 20.1583 17.13 21.975 17.13H23.5583C25.375 17.13 26.3333 16.1717 26.3333 14.355V12.7717C26.3333 10.955 25.375 9.99667 23.5583 9.99667Z" fill="white"/>
<path d="M14.0334 19.5217H12.45C10.625 19.5217 9.66669 20.48 9.66669 22.2967V23.88C9.66669 25.705 10.625 26.6634 12.4417 26.6634H14.025C15.8417 26.6634 16.8 25.705 16.8 23.8884V22.305C16.8084 20.48 15.85 19.5217 14.0334 19.5217Z" fill="white"/>
<path d="M13.2417 17.1467C15.2161 17.1467 16.8167 15.5461 16.8167 13.5717C16.8167 11.5973 15.2161 9.99667 13.2417 9.99667C11.2673 9.99667 9.66669 11.5973 9.66669 13.5717C9.66669 15.5461 11.2673 17.1467 13.2417 17.1467Z" fill="white"/>
<path d="M22.7583 26.6633C24.7328 26.6633 26.3334 25.0628 26.3334 23.0883C26.3334 21.1139 24.7328 19.5133 22.7583 19.5133C20.7839 19.5133 19.1833 21.1139 19.1833 23.0883C19.1833 25.0628 20.7839 26.6633 22.7583 26.6633Z" fill="white"/>
</svg>
