<svg width="335" height="60" viewBox="0 0 335 60" fill="none" xmlns="http://www.w3.org/2000/svg">
<path d="M12 0.5H323C329.351 0.5 334.5 5.64873 334.5 12V48C334.5 54.3513 329.351 59.5 323 59.5H0.5V12C0.5 5.64873 5.64873 0.5 12 0.5Z" stroke="#EAECF0"/>
<rect x="24" y="12" width="36" height="36" rx="18" fill="#800080"/>
<path d="M48.7083 28.8583L44.8167 27.1833L43.95 26.8167C43.8167 26.75 43.7 26.575 43.7 26.425V23.875C43.7 23.075 43.1083 22.125 42.3917 21.7583C42.1417 21.6333 41.8417 21.6333 41.5917 21.7583C40.8833 22.125 40.2917 23.0833 40.2917 23.8833V26.4333C40.2917 26.5833 40.175 26.7583 40.0417 26.825L35.2917 28.8667C34.7667 29.0833 34.3417 29.7417 34.3417 30.3083V31.4083C34.3417 32.1167 34.875 32.4667 35.5333 32.1833L39.7083 30.3833C40.0333 30.2417 40.3 30.4167 40.3 30.775V31.7V33.2C40.3 33.3917 40.1917 33.6667 40.0583 33.8L38.125 35.7417C37.925 35.9417 37.8333 36.3333 37.925 36.6167L38.3 37.75C38.45 38.2417 39.0083 38.475 39.4667 38.2417L41.45 36.575C41.75 36.3167 42.2417 36.3167 42.5417 36.575L44.525 38.2417C44.9833 38.4667 45.5417 38.2417 45.7083 37.75L46.0833 36.6167C46.175 36.3417 46.0833 35.9417 45.8833 35.7417L43.95 33.8C43.8083 33.6667 43.7 33.3917 43.7 33.2V30.775C43.7 30.4167 43.9583 30.25 44.2917 30.3833L48.4667 32.1833C49.125 32.4667 49.6583 32.1167 49.6583 31.4083V30.3083C49.6583 29.7417 49.2333 29.0833 48.7083 28.8583Z" fill="white"/>
<path d="M77.248 25.936H73.6V36H71.904V25.936H68.24V24.512H77.248V25.936ZM78.3336 29.432C78.595 28.8987 78.9096 28.48 79.2776 28.176C79.6456 27.872 80.0883 27.72 80.6056 27.72C80.7816 27.72 80.947 27.7413 81.1016 27.784C81.2616 27.8213 81.4003 27.88 81.5176 27.96L81.4136 29.136C81.3763 29.28 81.2883 29.352 81.1496 29.352C81.075 29.352 80.963 29.3387 80.8136 29.312C80.6643 29.28 80.5043 29.264 80.3336 29.264C80.083 29.264 79.8616 29.3013 79.6696 29.376C79.4776 29.4453 79.3043 29.552 79.1496 29.696C79.0003 29.8347 78.867 30.008 78.7496 30.216C78.6323 30.4187 78.523 30.6507 78.4216 30.912V36H76.8616V27.872H77.7576C77.9283 27.872 78.043 27.904 78.1016 27.968C78.1656 28.0267 78.211 28.1333 78.2376 28.288L78.3336 29.432ZM86.964 32.392C86.3293 32.4133 85.7907 32.464 85.348 32.544C84.9053 32.6187 84.5453 32.72 84.268 32.848C83.9907 32.976 83.7907 33.128 83.668 33.304C83.5453 33.4747 83.484 33.6667 83.484 33.88C83.484 34.0827 83.516 34.2587 83.58 34.408C83.6493 34.552 83.74 34.672 83.852 34.768C83.9693 34.8587 84.1053 34.9253 84.26 34.968C84.4147 35.0107 84.5827 35.032 84.764 35.032C85.004 35.032 85.2227 35.008 85.42 34.96C85.6227 34.912 85.812 34.8453 85.988 34.76C86.164 34.6693 86.332 34.56 86.492 34.432C86.652 34.304 86.8093 34.1573 86.964 33.992V32.392ZM82.388 29.008C82.8413 28.576 83.332 28.2533 83.86 28.04C84.3933 27.8267 84.9773 27.72 85.612 27.72C86.076 27.72 86.4867 27.7973 86.844 27.952C87.2013 28.1013 87.5027 28.312 87.748 28.584C87.9933 28.856 88.1773 29.1813 88.3 29.56C88.428 29.9387 88.492 30.3573 88.492 30.816V36H87.796C87.6413 36 87.524 35.976 87.444 35.928C87.364 35.8747 87.3 35.7787 87.252 35.64L87.084 34.928C86.876 35.12 86.6707 35.2907 86.468 35.44C86.2653 35.584 86.052 35.7093 85.828 35.816C85.6093 35.9173 85.3747 35.9947 85.124 36.048C84.8733 36.1013 84.596 36.128 84.292 36.128C83.972 36.128 83.6707 36.0853 83.388 36C83.1107 35.9093 82.868 35.7733 82.66 35.592C82.452 35.4107 82.2867 35.184 82.164 34.912C82.0467 34.64 81.988 34.3227 81.988 33.96C81.988 33.64 82.0733 33.3333 82.244 33.04C82.42 32.7413 82.7027 32.4747 83.092 32.24C83.4867 32.0053 83.9987 31.8133 84.628 31.664C85.2627 31.5147 86.0413 31.4293 86.964 31.408V30.816C86.964 30.2027 86.8333 29.744 86.572 29.44C86.3107 29.136 85.9267 28.984 85.42 28.984C85.0787 28.984 84.7907 29.0267 84.556 29.112C84.3267 29.1973 84.1267 29.2933 83.956 29.4C83.7907 29.5013 83.644 29.5947 83.516 29.68C83.3933 29.7653 83.2653 29.808 83.132 29.808C83.0253 29.808 82.932 29.7787 82.852 29.72C82.7773 29.6613 82.716 29.592 82.668 29.512L82.388 29.008ZM97.4645 27.872L94.1685 36H92.7605L89.4645 27.872H90.7525C90.8752 27.872 90.9765 27.9013 91.0565 27.96C91.1365 28.0187 91.1898 28.0933 91.2165 28.184L93.1605 33.176C93.2298 33.384 93.2885 33.592 93.3365 33.8C93.3898 34.0027 93.4378 34.2053 93.4805 34.408C93.5232 34.2053 93.5712 34.0027 93.6245 33.8C93.6778 33.5973 93.7418 33.3893 93.8165 33.176L95.7845 28.184C95.8165 28.0933 95.8725 28.0187 95.9525 27.96C96.0325 27.9013 96.1285 27.872 96.2405 27.872H97.4645ZM103.855 31.032C103.855 30.7227 103.81 30.4373 103.719 30.176C103.634 29.9147 103.506 29.688 103.335 29.496C103.164 29.304 102.956 29.1547 102.711 29.048C102.466 28.9413 102.183 28.888 101.863 28.888C101.207 28.888 100.69 29.0773 100.311 29.456C99.9377 29.8347 99.7003 30.36 99.599 31.032H103.855ZM105.143 34.84C104.951 35.064 104.73 35.2587 104.479 35.424C104.228 35.584 103.962 35.7147 103.679 35.816C103.396 35.9173 103.103 35.992 102.799 36.04C102.5 36.088 102.204 36.112 101.911 36.112C101.351 36.112 100.831 36.0187 100.351 35.832C99.8763 35.64 99.463 35.3627 99.111 35C98.7643 34.632 98.4923 34.1787 98.295 33.64C98.103 33.096 98.007 32.472 98.007 31.768C98.007 31.2027 98.095 30.6773 98.271 30.192C98.447 29.7013 98.6977 29.2747 99.023 28.912C99.3537 28.5493 99.7563 28.264 100.231 28.056C100.706 27.848 101.239 27.744 101.831 27.744C102.327 27.744 102.783 27.8267 103.199 27.992C103.62 28.152 103.983 28.3867 104.287 28.696C104.591 29.0053 104.828 29.3867 104.999 29.84C105.175 30.2933 105.263 30.8107 105.263 31.392C105.263 31.632 105.236 31.7947 105.183 31.88C105.13 31.96 105.031 32 104.887 32H99.559C99.575 32.4853 99.6443 32.9093 99.767 33.272C99.8897 33.6293 100.058 33.928 100.271 34.168C100.49 34.408 100.748 34.5867 101.047 34.704C101.346 34.8213 101.679 34.88 102.047 34.88C102.394 34.88 102.692 34.84 102.943 34.76C103.199 34.68 103.418 34.5947 103.599 34.504C103.786 34.408 103.94 34.32 104.063 34.24C104.191 34.16 104.303 34.12 104.399 34.12C104.527 34.12 104.626 34.168 104.695 34.264L105.143 34.84ZM108.54 24.192V36H106.972V24.192H108.54ZM111.696 36.128C111.621 36.3307 111.504 36.48 111.344 36.576C111.184 36.6773 111.019 36.728 110.848 36.728H110.192L114.96 24.76C115.035 24.5787 115.141 24.44 115.28 24.344C115.424 24.2427 115.589 24.192 115.776 24.192H116.44L111.696 36.128ZM131.31 24.512L126.638 36H125.11L120.438 24.512H121.798C121.947 24.512 122.067 24.5493 122.158 24.624C122.254 24.6987 122.326 24.7947 122.374 24.912L125.478 32.72C125.553 32.912 125.625 33.1227 125.694 33.352C125.769 33.5813 125.835 33.8213 125.894 34.072C125.947 33.8213 126.006 33.5813 126.07 33.352C126.134 33.1227 126.203 32.912 126.278 32.72L129.374 24.912C129.411 24.8053 129.478 24.712 129.574 24.632C129.675 24.552 129.798 24.512 129.942 24.512H131.31ZM135.605 32.392C134.97 32.4133 134.431 32.464 133.989 32.544C133.546 32.6187 133.186 32.72 132.909 32.848C132.631 32.976 132.431 33.128 132.309 33.304C132.186 33.4747 132.125 33.6667 132.125 33.88C132.125 34.0827 132.157 34.2587 132.221 34.408C132.29 34.552 132.381 34.672 132.493 34.768C132.61 34.8587 132.746 34.9253 132.901 34.968C133.055 35.0107 133.223 35.032 133.405 35.032C133.645 35.032 133.863 35.008 134.061 34.96C134.263 34.912 134.453 34.8453 134.629 34.76C134.805 34.6693 134.973 34.56 135.133 34.432C135.293 34.304 135.45 34.1573 135.605 33.992V32.392ZM131.029 29.008C131.482 28.576 131.973 28.2533 132.501 28.04C133.034 27.8267 133.618 27.72 134.253 27.72C134.717 27.72 135.127 27.7973 135.485 27.952C135.842 28.1013 136.143 28.312 136.389 28.584C136.634 28.856 136.818 29.1813 136.941 29.56C137.069 29.9387 137.133 30.3573 137.133 30.816V36H136.437C136.282 36 136.165 35.976 136.085 35.928C136.005 35.8747 135.941 35.7787 135.893 35.64L135.725 34.928C135.517 35.12 135.311 35.2907 135.109 35.44C134.906 35.584 134.693 35.7093 134.469 35.816C134.25 35.9173 134.015 35.9947 133.765 36.048C133.514 36.1013 133.237 36.128 132.933 36.128C132.613 36.128 132.311 36.0853 132.029 36C131.751 35.9093 131.509 35.7733 131.301 35.592C131.093 35.4107 130.927 35.184 130.805 34.912C130.687 34.64 130.629 34.3227 130.629 33.96C130.629 33.64 130.714 33.3333 130.885 33.04C131.061 32.7413 131.343 32.4747 131.733 32.24C132.127 32.0053 132.639 31.8133 133.269 31.664C133.903 31.5147 134.682 31.4293 135.605 31.408V30.816C135.605 30.2027 135.474 29.744 135.213 29.44C134.951 29.136 134.567 28.984 134.061 28.984C133.719 28.984 133.431 29.0267 133.197 29.112C132.967 29.1973 132.767 29.2933 132.597 29.4C132.431 29.5013 132.285 29.5947 132.157 29.68C132.034 29.7653 131.906 29.808 131.773 29.808C131.666 29.808 131.573 29.7787 131.493 29.72C131.418 29.6613 131.357 29.592 131.309 29.512L131.029 29.008ZM144.917 29.392C144.869 29.4507 144.821 29.4987 144.773 29.536C144.73 29.568 144.666 29.584 144.581 29.584C144.496 29.584 144.405 29.552 144.309 29.488C144.218 29.4187 144.101 29.3467 143.957 29.272C143.818 29.192 143.648 29.12 143.445 29.056C143.248 28.9867 143.002 28.952 142.709 28.952C142.325 28.952 141.986 29.0213 141.693 29.16C141.4 29.2987 141.154 29.496 140.957 29.752C140.765 30.008 140.618 30.32 140.517 30.688C140.416 31.056 140.365 31.4693 140.365 31.928C140.365 32.4027 140.418 32.8267 140.525 33.2C140.632 33.568 140.784 33.88 140.981 34.136C141.178 34.3867 141.418 34.5787 141.701 34.712C141.984 34.84 142.298 34.904 142.645 34.904C142.981 34.904 143.258 34.864 143.477 34.784C143.696 34.6987 143.877 34.608 144.021 34.512C144.165 34.416 144.285 34.328 144.381 34.248C144.477 34.1627 144.576 34.12 144.677 34.12C144.805 34.12 144.904 34.168 144.973 34.264L145.421 34.84C145.234 35.0693 145.024 35.264 144.789 35.424C144.56 35.584 144.314 35.7147 144.053 35.816C143.792 35.9173 143.517 35.992 143.229 36.04C142.946 36.088 142.658 36.112 142.365 36.112C141.858 36.112 141.384 36.0187 140.941 35.832C140.504 35.6453 140.122 35.3733 139.797 35.016C139.477 34.6587 139.224 34.2213 139.037 33.704C138.85 33.1813 138.757 32.5893 138.757 31.928C138.757 31.3253 138.84 30.768 139.005 30.256C139.176 29.744 139.424 29.304 139.749 28.936C140.08 28.5627 140.485 28.272 140.965 28.064C141.445 27.8507 141.994 27.744 142.613 27.744C143.194 27.744 143.706 27.8373 144.149 28.024C144.592 28.2107 144.986 28.4747 145.333 28.816L144.917 29.392ZM151.245 32.392C150.611 32.4133 150.072 32.464 149.629 32.544C149.187 32.6187 148.827 32.72 148.549 32.848C148.272 32.976 148.072 33.128 147.949 33.304C147.827 33.4747 147.765 33.6667 147.765 33.88C147.765 34.0827 147.797 34.2587 147.861 34.408C147.931 34.552 148.021 34.672 148.133 34.768C148.251 34.8587 148.387 34.9253 148.541 34.968C148.696 35.0107 148.864 35.032 149.045 35.032C149.285 35.032 149.504 35.008 149.701 34.96C149.904 34.912 150.093 34.8453 150.269 34.76C150.445 34.6693 150.613 34.56 150.773 34.432C150.933 34.304 151.091 34.1573 151.245 33.992V32.392ZM146.669 29.008C147.123 28.576 147.613 28.2533 148.141 28.04C148.675 27.8267 149.259 27.72 149.893 27.72C150.357 27.72 150.768 27.7973 151.125 27.952C151.483 28.1013 151.784 28.312 152.029 28.584C152.275 28.856 152.459 29.1813 152.581 29.56C152.709 29.9387 152.773 30.3573 152.773 30.816V36H152.077C151.923 36 151.805 35.976 151.725 35.928C151.645 35.8747 151.581 35.7787 151.533 35.64L151.365 34.928C151.157 35.12 150.952 35.2907 150.749 35.44C150.547 35.584 150.333 35.7093 150.109 35.816C149.891 35.9173 149.656 35.9947 149.405 36.048C149.155 36.1013 148.877 36.128 148.573 36.128C148.253 36.128 147.952 36.0853 147.669 36C147.392 35.9093 147.149 35.7733 146.941 35.592C146.733 35.4107 146.568 35.184 146.445 34.912C146.328 34.64 146.269 34.3227 146.269 33.96C146.269 33.64 146.355 33.3333 146.525 33.04C146.701 32.7413 146.984 32.4747 147.373 32.24C147.768 32.0053 148.28 31.8133 148.909 31.664C149.544 31.5147 150.323 31.4293 151.245 31.408V30.816C151.245 30.2027 151.115 29.744 150.853 29.44C150.592 29.136 150.208 28.984 149.701 28.984C149.36 28.984 149.072 29.0267 148.837 29.112C148.608 29.1973 148.408 29.2933 148.237 29.4C148.072 29.5013 147.925 29.5947 147.797 29.68C147.675 29.7653 147.547 29.808 147.413 29.808C147.307 29.808 147.213 29.7787 147.133 29.72C147.059 29.6613 146.997 29.592 146.949 29.512L146.669 29.008ZM162.456 36H160.888V29.136H156.808V33.896C156.808 34.216 156.886 34.456 157.04 34.616C157.2 34.7707 157.403 34.848 157.648 34.848C157.792 34.848 157.915 34.8293 158.016 34.792C158.123 34.7547 158.214 34.7147 158.288 34.672C158.363 34.624 158.427 34.5813 158.48 34.544C158.534 34.5067 158.582 34.488 158.624 34.488C158.678 34.488 158.718 34.5013 158.744 34.528C158.776 34.5493 158.808 34.5867 158.84 34.64L159.304 35.392C159.048 35.6267 158.744 35.808 158.392 35.936C158.04 36.064 157.675 36.128 157.296 36.128C156.64 36.128 156.134 35.944 155.776 35.576C155.424 35.208 155.248 34.6827 155.248 34V29.136H154.304C154.214 29.136 154.136 29.1093 154.072 29.056C154.014 28.9973 153.984 28.912 153.984 28.8V28.168L155.312 27.984L155.656 25.56C155.678 25.4693 155.718 25.4 155.776 25.352C155.84 25.2987 155.92 25.272 156.016 25.272H156.808V28H162.456V36ZM162.808 25.312C162.808 25.456 162.779 25.5947 162.72 25.728C162.662 25.856 162.582 25.9707 162.48 26.072C162.384 26.168 162.27 26.2453 162.136 26.304C162.003 26.3573 161.864 26.384 161.72 26.384C161.576 26.384 161.44 26.3573 161.312 26.304C161.184 26.2453 161.07 26.168 160.968 26.072C160.872 25.9707 160.795 25.856 160.736 25.728C160.683 25.5947 160.656 25.456 160.656 25.312C160.656 25.1627 160.683 25.0213 160.736 24.888C160.795 24.7547 160.872 24.64 160.968 24.544C161.07 24.4427 161.184 24.3653 161.312 24.312C161.44 24.2533 161.576 24.224 161.72 24.224C161.864 24.224 162.003 24.2533 162.136 24.312C162.27 24.3653 162.384 24.4427 162.48 24.544C162.582 24.64 162.662 24.7547 162.72 24.888C162.779 25.0213 162.808 25.1627 162.808 25.312ZM168.185 27.744C168.782 27.744 169.321 27.8427 169.801 28.04C170.286 28.232 170.697 28.512 171.033 28.88C171.374 29.2427 171.636 29.6827 171.817 30.2C171.998 30.712 172.089 31.288 172.089 31.928C172.089 32.568 171.998 33.1467 171.817 33.664C171.636 34.1813 171.374 34.6213 171.033 34.984C170.697 35.3467 170.286 35.6267 169.801 35.824C169.321 36.016 168.782 36.112 168.185 36.112C167.582 36.112 167.038 36.016 166.553 35.824C166.073 35.6267 165.662 35.3467 165.321 34.984C164.98 34.6213 164.716 34.1813 164.529 33.664C164.348 33.1467 164.257 32.568 164.257 31.928C164.257 31.288 164.348 30.712 164.529 30.2C164.716 29.6827 164.98 29.2427 165.321 28.88C165.662 28.512 166.073 28.232 166.553 28.04C167.038 27.8427 167.582 27.744 168.185 27.744ZM168.185 34.896C168.953 34.896 169.526 34.6373 169.905 34.12C170.284 33.6027 170.473 32.8747 170.473 31.936C170.473 30.9973 170.284 30.2693 169.905 29.752C169.526 29.2293 168.953 28.968 168.185 28.968C167.406 28.968 166.825 29.2293 166.441 29.752C166.062 30.2693 165.873 30.9973 165.873 31.936C165.873 32.8747 166.062 33.6027 166.441 34.12C166.825 34.6373 167.406 34.896 168.185 34.896ZM175.294 29C175.47 28.8133 175.654 28.6427 175.846 28.488C176.038 28.3333 176.241 28.2027 176.454 28.096C176.673 27.984 176.905 27.8987 177.15 27.84C177.401 27.776 177.668 27.744 177.95 27.744C178.398 27.744 178.79 27.8187 179.126 27.968C179.468 28.1173 179.753 28.328 179.982 28.6C180.212 28.8667 180.385 29.1893 180.502 29.568C180.62 29.9467 180.678 30.3653 180.678 30.824V36H179.11V30.824C179.11 30.2427 178.977 29.792 178.71 29.472C178.444 29.1467 178.036 28.984 177.486 28.984C177.086 28.984 176.71 29.08 176.358 29.272C176.012 29.4587 175.689 29.7147 175.39 30.04V36H173.83V27.872H174.766C174.985 27.872 175.121 27.976 175.174 28.184L175.294 29Z" fill="#101828"/>
<path d="M300.94 35.28L305.287 30.9333C305.8 30.42 305.8 29.58 305.287 29.0667L300.94 24.72" stroke="#667085" stroke-width="1.5" stroke-miterlimit="10" stroke-linecap="round" stroke-linejoin="round"/>
</svg>
