<svg width="36" height="36" viewBox="0 0 36 36" fill="none" xmlns="http://www.w3.org/2000/svg">
<rect width="36" height="36" rx="18" fill="#101828"/>
<path d="M21.4917 9.66666H14.5083C11.475 9.66666 9.66667 11.475 9.66667 14.5083V21.4833C9.66667 24.525 11.475 26.3333 14.5083 26.3333H21.4833C24.5167 26.3333 26.325 24.525 26.325 21.4917V14.5083C26.3333 11.475 24.525 9.66666 21.4917 9.66666ZM15.0833 13.3167C15.9417 13.3167 16.65 14.0167 16.65 14.8833C16.65 15.75 15.95 16.45 15.0833 16.45C14.2167 16.45 13.5167 15.7333 13.5167 14.875C13.5167 14.0167 14.225 13.3167 15.0833 13.3167ZM18 23.9C15.7583 23.9 13.9333 22.075 13.9333 19.8333C13.9333 19.25 14.4083 18.7667 14.9917 18.7667H20.9917C21.575 18.7667 22.05 19.2417 22.05 19.8333C22.0667 22.075 20.2417 23.9 18 23.9ZM20.9167 16.4333C20.0583 16.4333 19.35 15.7333 19.35 14.8667C19.35 14 20.05 13.3 20.9167 13.3C21.7833 13.3 22.4833 14 22.4833 14.8667C22.4833 15.7333 21.775 16.4333 20.9167 16.4333Z" fill="white"/>
</svg>
