<svg width="36" height="36" viewBox="0 0 36 36" fill="none" xmlns="http://www.w3.org/2000/svg">
<rect width="36" height="36" rx="18" fill="#F04438"/>
<path d="M13 12.2667C12.6583 12.2667 12.375 11.9833 12.375 11.6417V10.1833C12.375 9.84168 12.6583 9.55835 13 9.55835C13.3417 9.55835 13.625 9.84168 13.625 10.1833V11.6417C13.625 11.9917 13.3417 12.2667 13 12.2667Z" fill="white"/>
<path d="M16.3333 12.2667C15.9917 12.2667 15.7083 11.9833 15.7083 11.6417V10.1833C15.7083 9.84168 15.9917 9.55835 16.3333 9.55835C16.675 9.55835 16.9583 9.84168 16.9583 10.1833V11.6417C16.9583 11.9917 16.675 12.2667 16.3333 12.2667Z" fill="white"/>
<path d="M19.6667 12.2667C19.325 12.2667 19.0417 11.9833 19.0417 11.6417V10.1833C19.0417 9.84168 19.325 9.55835 19.6667 9.55835C20.0083 9.55835 20.2917 9.84168 20.2917 10.1833V11.6417C20.2917 11.9917 20.0083 12.2667 19.6667 12.2667Z" fill="white"/>
<path d="M26.5417 19.0417C26.5417 16.8583 24.85 15.0917 22.7167 14.9083C22.1 13.9 21 13.2167 19.7333 13.2167H13.5917C11.6583 13.2167 10.0833 14.7917 10.0833 16.725V17.1667H23.2417V16.725C23.2417 16.5667 23.2167 16.4083 23.1917 16.2583C24.4 16.6167 25.2917 17.7167 25.2917 19.0417C25.2917 20.35 24.425 21.4417 23.2417 21.8083V18H10.0833V22.825C10.0833 24.7583 11.6583 26.3333 13.5917 26.3333H19.7333C21.5667 26.3333 23.0583 24.9167 23.2083 23.1167C25.1083 22.7333 26.5417 21.05 26.5417 19.0417Z" fill="white"/>
</svg>
