<svg width="37" height="37" viewBox="0 0 37 37" fill="none" xmlns="http://www.w3.org/2000/svg">
<rect x="0.5" y="0.330017" width="36" height="36" rx="18" fill="#F04438"/>
<path d="M13.5 12.5967C13.1583 12.5967 12.875 12.3134 12.875 11.9717V10.5134C12.875 10.1717 13.1583 9.88835 13.5 9.88835C13.8417 9.88835 14.125 10.1717 14.125 10.5134V11.9717C14.125 12.3217 13.8417 12.5967 13.5 12.5967Z" fill="white"/>
<path d="M16.8333 12.5967C16.4917 12.5967 16.2083 12.3134 16.2083 11.9717V10.5134C16.2083 10.1717 16.4917 9.88835 16.8333 9.88835C17.175 9.88835 17.4583 10.1717 17.4583 10.5134V11.9717C17.4583 12.3217 17.175 12.5967 16.8333 12.5967Z" fill="white"/>
<path d="M20.1667 12.5967C19.825 12.5967 19.5417 12.3134 19.5417 11.9717V10.5134C19.5417 10.1717 19.825 9.88835 20.1667 9.88835C20.5083 9.88835 20.7917 10.1717 20.7917 10.5134V11.9717C20.7917 12.3217 20.5083 12.5967 20.1667 12.5967Z" fill="white"/>
<path d="M27.0417 19.3717C27.0417 17.1884 25.35 15.4217 23.2167 15.2384C22.6 14.23 21.5 13.5467 20.2333 13.5467H14.0917C12.1583 13.5467 10.5833 15.1217 10.5833 17.055V17.4967H23.7417V17.055C23.7417 16.8967 23.7167 16.7384 23.6917 16.5884C24.9 16.9467 25.7917 18.0467 25.7917 19.3717C25.7917 20.68 24.925 21.7717 23.7417 22.1384V18.33H10.5833V23.155C10.5833 25.0884 12.1583 26.6634 14.0917 26.6634H20.2333C22.0667 26.6634 23.5583 25.2467 23.7083 23.4467C25.6083 23.0634 27.0417 21.38 27.0417 19.3717Z" fill="white"/>
</svg>
