<svg width="36" height="36" viewBox="0 0 36 36" fill="none" xmlns="http://www.w3.org/2000/svg">
<rect width="36" height="36" rx="18" fill="#F04438"/>
<path d="M26.3333 14.5083V18.4167H22.9333C22.8333 18.4083 22.6167 18.2833 22.5667 18.1917L21.7 16.55C21.3583 15.9 20.7667 15.5333 20.1333 15.5667C19.5 15.6 18.9583 16.025 18.6833 16.7167L17.5333 19.6L17.3667 19.1667C16.9583 18.1083 15.7917 17.3083 14.6417 17.3083L9.66667 17.3333V14.5083C9.66667 11.475 11.475 9.66667 14.5083 9.66667H21.4917C24.525 9.66667 26.3333 11.475 26.3333 14.5083Z" fill="white"/>
<path d="M26.3333 21.4917V19.6667H22.9333C22.375 19.6667 21.7167 19.2667 21.4583 18.775L20.5917 17.1333C20.3583 16.6917 20.025 16.7167 19.8417 17.175L17.925 22.0167C17.7167 22.5583 17.3667 22.5583 17.15 22.0167L16.2 19.6167C15.975 19.0333 15.275 18.5583 14.65 18.5583L9.66667 18.5833V21.4917C9.66667 24.475 11.4167 26.275 14.3583 26.325C14.45 26.3333 14.55 26.3333 14.6417 26.3333H21.3083C21.4333 26.3333 21.5583 26.3333 21.675 26.325C24.6 26.2583 26.3333 24.4667 26.3333 21.4917Z" fill="white"/>
<path d="M9.66666 18.5833V21.3417C9.65 21.075 9.64166 20.7917 9.64166 20.5V18.5833H9.66666Z" fill="#111112"/>
</svg>
