<svg width="335" height="60" viewBox="0 0 335 60" fill="none" xmlns="http://www.w3.org/2000/svg">
<path d="M12 0.5H323C329.351 0.5 334.5 5.64873 334.5 12V48C334.5 54.3513 329.351 59.5 323 59.5H0.5V12C0.5 5.64873 5.64873 0.5 12 0.5Z" stroke="#EAECF0"/>
<rect x="24" y="12" width="36" height="36" rx="18" fill="#F04438"/>
<path d="M50.3333 26.5083V30.4167H46.9333C46.8333 30.4083 46.6167 30.2833 46.5667 30.1917L45.7 28.55C45.3583 27.9 44.7667 27.5333 44.1333 27.5667C43.5 27.6 42.9583 28.025 42.6833 28.7167L41.5333 31.6L41.3667 31.1667C40.9583 30.1083 39.7917 29.3083 38.6417 29.3083L33.6667 29.3333V26.5083C33.6667 23.475 35.475 21.6667 38.5083 21.6667H45.4917C48.525 21.6667 50.3333 23.475 50.3333 26.5083Z" fill="white"/>
<path d="M50.3333 33.4917V31.6667H46.9333C46.375 31.6667 45.7167 31.2667 45.4583 30.775L44.5917 29.1333C44.3583 28.6917 44.025 28.7167 43.8417 29.175L41.925 34.0167C41.7167 34.5583 41.3667 34.5583 41.15 34.0167L40.2 31.6167C39.975 31.0333 39.275 30.5583 38.65 30.5583L33.6667 30.5833V33.4917C33.6667 36.475 35.4167 38.275 38.3583 38.325C38.45 38.3333 38.55 38.3333 38.6417 38.3333H45.3083C45.4333 38.3333 45.5583 38.3333 45.675 38.325C48.6 38.2583 50.3333 36.4667 50.3333 33.4917Z" fill="white"/>
<path d="M33.6667 30.5833V33.3417C33.65 33.075 33.6417 32.7917 33.6417 32.5V30.5833H33.6667Z" fill="#111112"/>
<path d="M78.824 24.512V36H77.12V30.824H71.128V36H69.416V24.512H71.128V29.584H77.12V24.512H78.824ZM86.48 31.032C86.48 30.7227 86.4347 30.4373 86.344 30.176C86.2587 29.9147 86.1307 29.688 85.96 29.496C85.7893 29.304 85.5813 29.1547 85.336 29.048C85.0907 28.9413 84.808 28.888 84.488 28.888C83.832 28.888 83.3147 29.0773 82.936 29.456C82.5627 29.8347 82.3253 30.36 82.224 31.032H86.48ZM87.768 34.84C87.576 35.064 87.3547 35.2587 87.104 35.424C86.8533 35.584 86.5867 35.7147 86.304 35.816C86.0213 35.9173 85.728 35.992 85.424 36.04C85.1253 36.088 84.8293 36.112 84.536 36.112C83.976 36.112 83.456 36.0187 82.976 35.832C82.5013 35.64 82.088 35.3627 81.736 35C81.3893 34.632 81.1173 34.1787 80.92 33.64C80.728 33.096 80.632 32.472 80.632 31.768C80.632 31.2027 80.72 30.6773 80.896 30.192C81.072 29.7013 81.3227 29.2747 81.648 28.912C81.9787 28.5493 82.3813 28.264 82.856 28.056C83.3307 27.848 83.864 27.744 84.456 27.744C84.952 27.744 85.408 27.8267 85.824 27.992C86.2453 28.152 86.608 28.3867 86.912 28.696C87.216 29.0053 87.4533 29.3867 87.624 29.84C87.8 30.2933 87.888 30.8107 87.888 31.392C87.888 31.632 87.8613 31.7947 87.808 31.88C87.7547 31.96 87.656 32 87.512 32H82.184C82.2 32.4853 82.2693 32.9093 82.392 33.272C82.5147 33.6293 82.6827 33.928 82.896 34.168C83.1147 34.408 83.3733 34.5867 83.672 34.704C83.9707 34.8213 84.304 34.88 84.672 34.88C85.0187 34.88 85.3173 34.84 85.568 34.76C85.824 34.68 86.0427 34.5947 86.224 34.504C86.4107 34.408 86.5653 34.32 86.688 34.24C86.816 34.16 86.928 34.12 87.024 34.12C87.152 34.12 87.2507 34.168 87.32 34.264L87.768 34.84ZM93.9328 32.392C93.2981 32.4133 92.7594 32.464 92.3168 32.544C91.8741 32.6187 91.5141 32.72 91.2368 32.848C90.9594 32.976 90.7594 33.128 90.6368 33.304C90.5141 33.4747 90.4528 33.6667 90.4528 33.88C90.4528 34.0827 90.4848 34.2587 90.5488 34.408C90.6181 34.552 90.7088 34.672 90.8207 34.768C90.9381 34.8587 91.0741 34.9253 91.2288 34.968C91.3834 35.0107 91.5514 35.032 91.7328 35.032C91.9728 35.032 92.1914 35.008 92.3888 34.96C92.5914 34.912 92.7808 34.8453 92.9568 34.76C93.1328 34.6693 93.3008 34.56 93.4608 34.432C93.6208 34.304 93.7781 34.1573 93.9328 33.992V32.392ZM89.3568 29.008C89.8101 28.576 90.3008 28.2533 90.8288 28.04C91.3621 27.8267 91.9461 27.72 92.5807 27.72C93.0448 27.72 93.4554 27.7973 93.8128 27.952C94.1701 28.1013 94.4714 28.312 94.7168 28.584C94.9621 28.856 95.1461 29.1813 95.2688 29.56C95.3968 29.9387 95.4608 30.3573 95.4608 30.816V36H94.7648C94.6101 36 94.4928 35.976 94.4128 35.928C94.3328 35.8747 94.2688 35.7787 94.2208 35.64L94.0528 34.928C93.8448 35.12 93.6394 35.2907 93.4368 35.44C93.2341 35.584 93.0208 35.7093 92.7968 35.816C92.5781 35.9173 92.3434 35.9947 92.0928 36.048C91.8421 36.1013 91.5648 36.128 91.2608 36.128C90.9408 36.128 90.6394 36.0853 90.3568 36C90.0794 35.9093 89.8368 35.7733 89.6288 35.592C89.4208 35.4107 89.2554 35.184 89.1328 34.912C89.0154 34.64 88.9568 34.3227 88.9568 33.96C88.9568 33.64 89.0421 33.3333 89.2128 33.04C89.3888 32.7413 89.6714 32.4747 90.0608 32.24C90.4554 32.0053 90.9674 31.8133 91.5968 31.664C92.2314 31.5147 93.0101 31.4293 93.9328 31.408V30.816C93.9328 30.2027 93.8021 29.744 93.5408 29.44C93.2794 29.136 92.8954 28.984 92.3888 28.984C92.0474 28.984 91.7594 29.0267 91.5248 29.112C91.2954 29.1973 91.0954 29.2933 90.9248 29.4C90.7594 29.5013 90.6128 29.5947 90.4848 29.68C90.3621 29.7653 90.2341 29.808 90.1008 29.808C89.9941 29.808 89.9008 29.7787 89.8208 29.72C89.7461 29.6613 89.6848 29.592 89.6368 29.512L89.3568 29.008ZM99.1491 24.192V36H97.5811V24.192H99.1491ZM103.921 36.128C103.265 36.128 102.759 35.944 102.401 35.576C102.049 35.208 101.873 34.6827 101.873 34V29.136H100.929C100.839 29.136 100.761 29.1093 100.697 29.056C100.639 28.9973 100.609 28.912 100.609 28.8V28.168L101.929 27.984L102.281 25.56C102.303 25.4693 102.343 25.4 102.401 25.352C102.465 25.2987 102.545 25.272 102.641 25.272H103.433V28H105.737V29.136H103.433V33.896C103.433 34.216 103.511 34.456 103.665 34.616C103.825 34.7707 104.028 34.848 104.273 34.848C104.417 34.848 104.54 34.8293 104.641 34.792C104.748 34.7547 104.839 34.7147 104.913 34.672C104.988 34.624 105.052 34.5813 105.105 34.544C105.159 34.5067 105.207 34.488 105.249 34.488C105.303 34.488 105.343 34.5013 105.369 34.528C105.401 34.5493 105.433 34.5867 105.465 34.64L105.929 35.392C105.673 35.6267 105.369 35.808 105.017 35.936C104.665 36.064 104.3 36.128 103.921 36.128ZM108.734 28.904C109.075 28.5573 109.451 28.2773 109.862 28.064C110.278 27.8507 110.755 27.744 111.294 27.744C111.742 27.744 112.134 27.8187 112.47 27.968C112.811 28.1173 113.097 28.328 113.326 28.6C113.555 28.8667 113.729 29.1893 113.846 29.568C113.963 29.9467 114.022 30.3653 114.022 30.824V36H112.454V30.824C112.454 30.2427 112.321 29.792 112.054 29.472C111.787 29.1467 111.379 28.984 110.83 28.984C110.43 28.984 110.054 29.08 109.702 29.272C109.355 29.4587 109.033 29.7147 108.734 30.04V36H107.174V24.192H108.734V28.904Z" fill="#101828"/>
<path d="M300.94 35.28L305.287 30.9333C305.8 30.42 305.8 29.58 305.287 29.0667L300.94 24.72" stroke="#667085" stroke-width="1.5" stroke-miterlimit="10" stroke-linecap="round" stroke-linejoin="round"/>
</svg>
