<svg width="36" height="36" viewBox="0 0 36 36" fill="none" xmlns="http://www.w3.org/2000/svg">
<rect width="36" height="36" rx="18" fill="#FACC15"/>
<path d="M26.3333 25.7083H25.5V16.3167C25.5 15.8 25.2667 15.3167 24.8583 15L23.8333 14.2L23.8167 12.1583C23.8167 11.7 23.4417 11.3333 22.9833 11.3333H20.1417L19.025 10.4667C18.425 9.99166 17.575 9.99166 16.975 10.4667L11.1417 15C10.7333 15.3167 10.5 15.8 10.5 16.3083L10.4583 25.7083H9.66667C9.32501 25.7083 9.04167 25.9917 9.04167 26.3333C9.04167 26.675 9.32501 26.9583 9.66667 26.9583H26.3333C26.675 26.9583 26.9583 26.675 26.9583 26.3333C26.9583 25.9917 26.675 25.7083 26.3333 25.7083ZM13.4167 18.625V17.375C13.4167 16.9167 13.7917 16.5417 14.25 16.5417H15.9167C16.375 16.5417 16.75 16.9167 16.75 17.375V18.625C16.75 19.0833 16.375 19.4583 15.9167 19.4583H14.25C13.7917 19.4583 13.4167 19.0833 13.4167 18.625ZM20.0833 25.7083H15.9167V23.4167C15.9167 22.725 16.475 22.1667 17.1667 22.1667H18.8333C19.525 22.1667 20.0833 22.725 20.0833 23.4167V25.7083ZM22.5833 18.625C22.5833 19.0833 22.2083 19.4583 21.75 19.4583H20.0833C19.625 19.4583 19.25 19.0833 19.25 18.625V17.375C19.25 16.9167 19.625 16.5417 20.0833 16.5417H21.75C22.2083 16.5417 22.5833 16.9167 22.5833 17.375V18.625Z" fill="white"/>
</svg>
