<svg width="37" height="37" viewBox="0 0 37 37" fill="none" xmlns="http://www.w3.org/2000/svg">
<rect x="0.5" y="0.330017" width="36" height="36" rx="18" fill="#FACC15"/>
<path d="M26.8333 26.0384H26V16.6467C26 16.13 25.7667 15.6467 25.3583 15.33L24.3333 14.53L24.3167 12.4884C24.3167 12.03 23.9417 11.6634 23.4833 11.6634H20.6417L19.525 10.7967C18.925 10.3217 18.075 10.3217 17.475 10.7967L11.6417 15.33C11.2333 15.6467 11 16.13 11 16.6384L10.9583 26.0384H10.1667C9.82499 26.0384 9.54166 26.3217 9.54166 26.6634C9.54166 27.005 9.82499 27.2884 10.1667 27.2884H26.8333C27.175 27.2884 27.4583 27.005 27.4583 26.6634C27.4583 26.3217 27.175 26.0384 26.8333 26.0384ZM13.9167 18.955V17.705C13.9167 17.2467 14.2917 16.8717 14.75 16.8717H16.4167C16.875 16.8717 17.25 17.2467 17.25 17.705V18.955C17.25 19.4134 16.875 19.7884 16.4167 19.7884H14.75C14.2917 19.7884 13.9167 19.4134 13.9167 18.955ZM20.5833 26.0384H16.4167V23.7467C16.4167 23.055 16.975 22.4967 17.6667 22.4967H19.3333C20.025 22.4967 20.5833 23.055 20.5833 23.7467V26.0384ZM23.0833 18.955C23.0833 19.4134 22.7083 19.7884 22.25 19.7884H20.5833C20.125 19.7884 19.75 19.4134 19.75 18.955V17.705C19.75 17.2467 20.125 16.8717 20.5833 16.8717H22.25C22.7083 16.8717 23.0833 17.2467 23.0833 17.705V18.955Z" fill="white"/>
</svg>
