<svg width="36" height="36" viewBox="0 0 36 36" fill="none" xmlns="http://www.w3.org/2000/svg">
<rect width="36" height="36" rx="18" fill="#F97316"/>
<path d="M24.0333 12.65H23.7L20.8833 9.83333C20.6583 9.60833 20.2917 9.60833 20.0583 9.83333C19.8333 10.0583 19.8333 10.425 20.0583 10.6583L22.05 12.65H13.95L15.9417 10.6583C16.1667 10.4333 16.1667 10.0667 15.9417 9.83333C15.7167 9.60833 15.35 9.60833 15.1167 9.83333L12.3083 12.65H11.975C11.225 12.65 9.66667 12.65 9.66667 14.7833C9.66667 15.5917 9.83334 16.125 10.1833 16.475C10.3833 16.6833 10.625 16.7917 10.8833 16.85C11.125 16.9083 11.3833 16.9167 11.6333 16.9167H24.3667C24.625 16.9167 24.8667 16.9 25.1 16.85C25.8 16.6833 26.3333 16.1833 26.3333 14.7833C26.3333 12.65 24.775 12.65 24.0333 12.65Z" fill="white"/>
<path d="M23.875 18H12.0583C11.5417 18 11.15 18.4583 11.2333 18.9667L11.9333 23.25C12.1667 24.6833 12.7917 26.3333 15.5667 26.3333H20.2417C23.05 26.3333 23.55 24.925 23.85 23.35L24.6917 18.9917C24.7917 18.475 24.4 18 23.875 18ZM18 24.25C16.05 24.25 14.4583 22.6583 14.4583 20.7083C14.4583 20.3667 14.7417 20.0833 15.0833 20.0833C15.425 20.0833 15.7083 20.3667 15.7083 20.7083C15.7083 21.975 16.7333 23 18 23C19.2667 23 20.2917 21.975 20.2917 20.7083C20.2917 20.3667 20.575 20.0833 20.9167 20.0833C21.2583 20.0833 21.5417 20.3667 21.5417 20.7083C21.5417 22.6583 19.95 24.25 18 24.25Z" fill="white"/>
</svg>
