<svg width="36" height="36" viewBox="0 0 36 36" fill="none" xmlns="http://www.w3.org/2000/svg">
<rect width="36" height="36" rx="18" fill="#039855"/>
<path d="M22.6083 14.475C22.55 14.4667 22.4917 14.4667 22.4333 14.475C21.1417 14.4333 20.1167 13.375 20.1167 12.075C20.1167 10.75 21.1917 9.66666 22.525 9.66666C23.85 9.66666 24.9333 10.7417 24.9333 12.075C24.925 13.375 23.9 14.4333 22.6083 14.475Z" fill="white"/>
<path d="M25.325 20.25C24.3917 20.875 23.0833 21.1083 21.875 20.95C22.1917 20.2667 22.3583 19.5083 22.3667 18.7083C22.3667 17.875 22.1833 17.0833 21.8333 16.3917C23.0667 16.225 24.375 16.4583 25.3167 17.0833C26.6333 17.95 26.6333 19.375 25.325 20.25Z" fill="white"/>
<path d="M13.3667 14.475C13.425 14.4667 13.4833 14.4667 13.5417 14.475C14.8333 14.4333 15.8583 13.375 15.8583 12.075C15.8583 10.7417 14.7833 9.66666 13.45 9.66666C12.125 9.66666 11.05 10.7417 11.05 12.075C11.05 13.375 12.075 14.4333 13.3667 14.475Z" fill="white"/>
<path d="M13.4583 18.7083C13.4583 19.5167 13.6333 20.2833 13.95 20.975C12.775 21.1 11.55 20.85 10.65 20.2583C9.33334 19.3833 9.33334 17.9583 10.65 17.0833C11.5417 16.4833 12.8 16.2417 13.9833 16.375C13.6417 17.075 13.4583 17.8667 13.4583 18.7083Z" fill="white"/>
<path d="M18.1 21.225C18.0333 21.2167 17.9583 21.2167 17.8833 21.225C16.35 21.175 15.125 19.9167 15.125 18.3667C15.1333 16.7833 16.4083 15.5 18 15.5C19.5833 15.5 20.8667 16.7833 20.8667 18.3667C20.8583 19.9167 19.6417 21.175 18.1 21.225Z" fill="white"/>
<path d="M15.3917 22.95C14.1333 23.7917 14.1333 25.175 15.3917 26.0083C16.825 26.9667 19.175 26.9667 20.6083 26.0083C21.8667 25.1667 21.8667 23.7833 20.6083 22.95C19.1833 21.9917 16.8333 21.9917 15.3917 22.95Z" fill="white"/>
</svg>
