<svg width="36" height="37" viewBox="0 0 36 37" fill="none" xmlns="http://www.w3.org/2000/svg">
<rect y="0.330017" width="36" height="36" rx="18" fill="#12B76A"/>
<path d="M26.125 14.9967C26.125 15.3383 25.8417 15.6217 25.5 15.6217H10.5C10.1583 15.6217 9.875 15.3383 9.875 14.9967C9.875 14.655 10.1583 14.3717 10.5 14.3717H11.35L11.6667 12.8633C11.9667 11.405 12.5917 10.0633 15.075 10.0633H20.925C23.4083 10.0633 24.0333 11.405 24.3333 12.8633L24.65 14.3717H25.5C25.8417 14.3717 26.125 14.655 26.125 14.9967Z" fill="white"/>
<path d="M26.4833 19.7134C26.3583 18.3384 25.9916 16.8717 23.3166 16.8717H12.6833C10.0083 16.8717 9.64997 18.3384 9.51664 19.7134L9.04997 24.7884C8.99164 25.4217 9.19997 26.055 9.6333 26.53C10.075 27.0134 10.7 27.2884 11.3666 27.2884H12.9333C14.2833 27.2884 14.5416 26.5134 14.7083 26.005L14.875 25.505C15.0666 24.93 15.1166 24.7884 15.8666 24.7884H20.1333C20.8833 24.7884 20.9083 24.8717 21.125 25.505L21.2916 26.005C21.4583 26.5134 21.7166 27.2884 23.0666 27.2884H24.6333C25.2916 27.2884 25.925 27.0134 26.3666 26.53C26.8 26.055 27.0083 25.4217 26.95 24.7884L26.4833 19.7134ZM15.5 21.455H13C12.6583 21.455 12.375 21.1717 12.375 20.83C12.375 20.4884 12.6583 20.205 13 20.205H15.5C15.8416 20.205 16.125 20.4884 16.125 20.83C16.125 21.1717 15.8416 21.455 15.5 21.455ZM23 21.455H20.5C20.1583 21.455 19.875 21.1717 19.875 20.83C19.875 20.4884 20.1583 20.205 20.5 20.205H23C23.3416 20.205 23.625 20.4884 23.625 20.83C23.625 21.1717 23.3416 21.455 23 21.455Z" fill="white"/>
</svg>
