<svg width="36" height="36" viewBox="0 0 36 36" fill="none" xmlns="http://www.w3.org/2000/svg">
<rect width="36" height="36" rx="18" fill="#005EE8"/>
<path d="M26.125 14.6667C26.125 15.0083 25.8417 15.2917 25.5 15.2917H10.5C10.1583 15.2917 9.875 15.0083 9.875 14.6667C9.875 14.325 10.1583 14.0417 10.5 14.0417H11.35L11.6667 12.5333C11.9667 11.075 12.5917 9.73334 15.075 9.73334H20.925C23.4083 9.73334 24.0333 11.075 24.3333 12.5333L24.65 14.0417H25.5C25.8417 14.0417 26.125 14.325 26.125 14.6667Z" fill="white"/>
<path d="M26.4833 19.3833C26.3583 18.0083 25.9917 16.5417 23.3167 16.5417H12.6833C10.0083 16.5417 9.65 18.0083 9.51667 19.3833L9.05 24.4583C8.99167 25.0917 9.2 25.725 9.63333 26.2C10.075 26.6833 10.7 26.9583 11.3667 26.9583H12.9333C14.2833 26.9583 14.5417 26.1833 14.7083 25.675L14.875 25.175C15.0667 24.6 15.1167 24.4583 15.8667 24.4583H20.1333C20.8833 24.4583 20.9083 24.5417 21.125 25.175L21.2917 25.675C21.4583 26.1833 21.7167 26.9583 23.0667 26.9583H24.6333C25.2917 26.9583 25.925 26.6833 26.3667 26.2C26.8 25.725 27.0083 25.0917 26.95 24.4583L26.4833 19.3833ZM15.5 21.125H13C12.6583 21.125 12.375 20.8417 12.375 20.5C12.375 20.1583 12.6583 19.875 13 19.875H15.5C15.8417 19.875 16.125 20.1583 16.125 20.5C16.125 20.8417 15.8417 21.125 15.5 21.125ZM23 21.125H20.5C20.1583 21.125 19.875 20.8417 19.875 20.5C19.875 20.1583 20.1583 19.875 20.5 19.875H23C23.3417 19.875 23.625 20.1583 23.625 20.5C23.625 20.8417 23.3417 21.125 23 21.125Z" fill="white"/>
</svg>
