<svg width="36" height="37" viewBox="0 0 36 37" fill="none" xmlns="http://www.w3.org/2000/svg">
<rect y="0.330017" width="36" height="36" rx="18" fill="#F79009"/>
<path d="M26.3334 26.0383H25.5V16.6467C25.5 16.13 25.2667 15.6467 24.8584 15.33L23.8334 14.53L23.8167 12.4883C23.8167 12.03 23.4417 11.6633 22.9834 11.6633H20.1417L19.025 10.7967C18.425 10.3217 17.575 10.3217 16.975 10.7967L11.1417 15.33C10.7334 15.6467 10.5 16.13 10.5 16.6383L10.4584 26.0383H9.66669C9.32502 26.0383 9.04169 26.3217 9.04169 26.6633C9.04169 27.005 9.32502 27.2883 9.66669 27.2883H26.3334C26.675 27.2883 26.9584 27.005 26.9584 26.6633C26.9584 26.3217 26.675 26.0383 26.3334 26.0383ZM13.4167 18.955V17.705C13.4167 17.2467 13.7917 16.8717 14.25 16.8717H15.9167C16.375 16.8717 16.75 17.2467 16.75 17.705V18.955C16.75 19.4133 16.375 19.7883 15.9167 19.7883H14.25C13.7917 19.7883 13.4167 19.4133 13.4167 18.955ZM20.0834 26.0383H15.9167V23.7467C15.9167 23.055 16.475 22.4967 17.1667 22.4967H18.8334C19.525 22.4967 20.0834 23.055 20.0834 23.7467V26.0383ZM22.5834 18.955C22.5834 19.4133 22.2084 19.7883 21.75 19.7883H20.0834C19.625 19.7883 19.25 19.4133 19.25 18.955V17.705C19.25 17.2467 19.625 16.8717 20.0834 16.8717H21.75C22.2084 16.8717 22.5834 17.2467 22.5834 17.705V18.955Z" fill="white"/>
</svg>
