<svg width="36" height="36" viewBox="0 0 36 36" fill="none" xmlns="http://www.w3.org/2000/svg">
<rect width="36" height="36" rx="18" fill="#800080"/>
<path d="M24.7083 16.8583L20.8167 15.1833L19.95 14.8167C19.8167 14.75 19.7 14.575 19.7 14.425V11.875C19.7 11.075 19.1083 10.125 18.3917 9.75833C18.1417 9.63333 17.8417 9.63333 17.5917 9.75833C16.8833 10.125 16.2917 11.0833 16.2917 11.8833V14.4333C16.2917 14.5833 16.175 14.7583 16.0417 14.825L11.2917 16.8667C10.7667 17.0833 10.3417 17.7417 10.3417 18.3083V19.4083C10.3417 20.1167 10.875 20.4667 11.5333 20.1833L15.7083 18.3833C16.0333 18.2417 16.3 18.4167 16.3 18.775V19.7V21.2C16.3 21.3917 16.1917 21.6667 16.0583 21.8L14.125 23.7417C13.925 23.9417 13.8333 24.3333 13.925 24.6167L14.3 25.75C14.45 26.2417 15.0083 26.475 15.4667 26.2417L17.45 24.575C17.75 24.3167 18.2417 24.3167 18.5417 24.575L20.525 26.2417C20.9833 26.4667 21.5417 26.2417 21.7083 25.75L22.0833 24.6167C22.175 24.3417 22.0833 23.9417 21.8833 23.7417L19.95 21.8C19.8083 21.6667 19.7 21.3917 19.7 21.2V18.775C19.7 18.4167 19.9583 18.25 20.2917 18.3833L24.4667 20.1833C25.125 20.4667 25.6583 20.1167 25.6583 19.4083V18.3083C25.6583 17.7417 25.2333 17.0833 24.7083 16.8583Z" fill="white"/>
</svg>
